<svg width="543" height="583" viewBox="0 0 543 583" fill="none" xmlns="http://www.w3.org/2000/svg">
<path d="M435.289 105.745L196.64 105.745L169.596 134.834L169.596 210.479L201.094 242.15L376.925 242.15L436.421 301.859L436.421 449.144L369.337 518.755L107.042 518.755L107.042 457.414L341.493 457.414L374.862 423.794L374.862 328.184L351.505 303.271L176.446 303.271L109.708 236.795L108.59 107.945L171.519 44.7703L435.291 44.7703L435.289 105.745Z" stroke="white" stroke-width="41"/>
<circle cx="531.312" cy="35.1973" r="11.5" fill="white"/>
<rect x="475.715" y="24.1992" width="26.0938" height="22" fill="white"/>
<rect x="475.715" y="64.0059" width="67.0977" height="22" fill="white"/>
<rect x="475.715" y="103.812" width="67.0977" height="22" fill="white"/>
<rect x="0.65625" y="437.43" width="67.0977" height="22" fill="white"/>
<rect x="0.65625" y="477.33" width="67.0977" height="22" fill="white"/>
<rect x="41.6602" y="517.23" width="26.0938" height="22" fill="white"/>
<circle cx="12.1562" cy="528.23" r="11.5" fill="white"/>
<path d="M86.5898 559.596H370.638V581.596H86.5898V559.596Z" fill="white"/>
<path d="M227.617 162.68H542.297V184.68H227.617V162.68Z" fill="white"/>
<rect x="0.65625" y="369.035" width="333.969" height="22" fill="white"/>
<path d="M390.633 581.651L390.639 552.425L457.165 486.082L457.165 515.725L437.563 533.965L390.633 581.651Z" fill="white"/>
<path d="M87.6744 72.0689L87.6749 43.3005L87.6756 24.3308L105.749 24.3264L134.461 24.3264L131.174 27.5814L87.6744 72.0689Z" fill="white"/>
<path d="M412.137 221.086H498.566V243.086H434.108L412.137 221.086Z" fill="white"/>
<path d="M450.363 257.176H498.742V279.176H472.56L450.363 257.176Z" fill="white"/>
<path d="M135.523 324.037L45.9738 323.446V301.446L115.253 303.134L135.523 324.037Z" fill="white"/>
<path d="M89.5352 283.918L45.9719 284.445V262.445L69.2645 263.016L89.5352 283.918Z" fill="white"/>
<path d="M476.742 581.596L476.742 293.264H498.742L498.742 557.136L476.742 581.596Z" fill="white"/>
<path d="M68.1484 99.6035L68.1484 245.445H46.1484L46.1484 122.134L68.1484 99.6035Z" fill="white"/>
<path d="M68.1484 24.3164L68.1484 72.7637L46.1484 94.5055L46.1484 45.1441L68.1484 24.3164Z" fill="white"/>
<path d="M456.776 540.572V581.593H415.965L456.776 540.572Z" fill="white"/>
</svg>
